<svg width="1120" height="720" viewBox="0 0 1120 720" fill="none" xmlns="http://www.w3.org/2000/svg">
<g clip-path="url(#clip0)">
<path d="M606.428 712.363C582.5 732.441 580.893 730.526 580.25 729.76C579.607 728.994 578 727.078 601.928 707C620.177 691.688 931.413 434.55 1078.14 313.34C1078.65 312.918 1079.29 313.669 1078.78 314.096C932.156 437.744 619.843 701.106 606.428 712.363Z" fill="url(#paint0_linear)"/>
<path d="M913.161 48.4363C930.366 34.0001 931.973 35.9152 932.616 36.6812C933.258 37.4473 934.865 39.3624 917.661 53.7986C904.54 64.8082 680.204 249.029 574.444 335.864C573.932 336.284 573.297 335.533 573.803 335.105C679.142 246.101 903.516 56.5298 913.161 48.4363Z" fill="url(#paint1_linear)"/>
<path d="M977.87 271.559C987.229 263.707 998.765 261.69 1001.87 264.929C1004.97 268.167 998.154 279.289 990.117 286.154C983.185 292.075 756.049 468.598 693.687 517.054C693.173 517.453 692.568 516.714 693.061 516.29C752.768 464.947 969.802 278.329 977.87 271.559Z" fill="url(#paint2_linear)"/>
<path d="M895.909 828.134C886.55 835.987 875.014 838.003 871.911 834.765C868.808 831.526 875.625 820.404 883.662 813.539C890.594 807.618 1117.73 631.095 1180.09 582.639C1180.61 582.24 1181.21 582.98 1180.72 583.404C1121.01 634.746 903.977 821.364 895.909 828.134Z" fill="url(#paint3_linear)"/>
<path d="M866.779 275.693C857.779 282.693 851.686 279.734 849.912 277.714C848.137 275.693 847.279 270.648 856.279 262.693C863.982 255.885 936.52 207.806 957.273 194.086C957.789 193.745 958.333 194.448 957.873 194.862C939.348 211.502 874.483 269.701 866.779 275.693Z" fill="url(#paint4_linear)"/>
<path d="M1031.21 552.207C1001.52 576.663 996.412 573.993 995.412 573C994.412 572.008 992.174 567.11 1023.06 540.856C1049.02 518.791 1270.2 343.477 1340.12 288.091C1340.64 287.685 1341.24 288.437 1340.74 288.862C1272.57 347.041 1056.18 531.64 1031.21 552.207Z" fill="url(#paint5_linear)"/>
<path d="M792.956 498.242C822.65 473.786 827.754 476.456 828.754 477.449C829.754 478.442 831.992 483.34 801.104 509.594C775.145 531.658 553.965 706.972 484.041 762.358C483.528 762.764 482.924 762.012 483.422 761.587C551.598 703.408 767.984 518.81 792.956 498.242Z" fill="url(#paint6_linear)"/>
<path d="M547.619 216.73C551.434 214.007 558.068 213.583 561.141 217.168C564.215 220.752 562.263 226.428 558.508 229.943C555.286 232.96 516.241 252.568 505.249 258.06C504.738 258.316 504.277 257.662 504.689 257.265C513.445 248.818 544.348 219.063 547.619 216.73Z" fill="url(#paint7_linear)"/>
<path d="M562.747 896.468C547.972 908.866 532.667 917.196 530.462 913.611C528.258 910.027 540.988 896.497 553.727 885.719C564.399 876.689 897.569 606.901 1005.39 519.604C1005.9 519.19 1006.53 519.938 1006.03 520.365C900.543 609.893 575.12 886.087 562.747 896.468Z" fill="url(#paint8_linear)"/>
<path d="M266.144 390.991C280.918 378.593 297.844 372.194 301.999 378.103C306.154 384.012 294.445 398.76 281.739 409.576C270.576 419.078 -99.1104 710.692 -188.761 781.399C-189.274 781.804 -189.879 781.05 -189.383 780.625C-102.854 706.569 253.168 401.878 266.144 390.991Z" fill="url(#paint9_linear)"/>
<path d="M97.7779 714.527C84.9024 725.33 82.9613 723.017 82.0098 721.883C81.0584 720.749 81.3754 716.541 91.9929 707.632C100.417 700.563 305.682 533.92 390.13 465.37C390.642 464.955 391.267 465.708 390.764 466.135C307.808 536.488 106.152 707.5 97.7779 714.527Z" fill="url(#paint10_linear)"/>
<path d="M569.546 583.804C582.422 573 584.363 575.313 585.314 576.447C586.266 577.581 585.949 581.789 575.331 590.698C566.907 597.767 361.642 764.411 277.194 832.96C276.682 833.376 276.057 832.622 276.56 832.195C359.516 761.842 561.172 590.831 569.546 583.804Z" fill="url(#paint11_linear)"/>
<path d="M335.083 29.7403C341.103 24.6888 339.233 20.1261 337.753 18.3623C336.273 16.5984 331.048 14.8501 326.084 19.0156C321.928 22.503 221.504 116.457 188.916 146.956C188.447 147.395 189.068 148.11 189.568 147.705C224.228 119.638 330.952 33.2066 335.083 29.7403Z" fill="url(#paint12_linear)"/>
<path d="M998.199 490.759C1001.07 487.07 1006.07 482.07 1001.57 478.07C997.07 474.07 992.57 476.57 989.2 480.035C986.376 482.937 948.772 523.827 936.629 537.035C936.217 537.484 936.813 538.132 937.298 537.763C951.764 526.781 996.838 492.507 998.199 490.759Z" fill="url(#paint13_linear)"/>
<path d="M26.1688 404.291C20.1487 409.343 22.0191 413.905 23.4991 415.669C24.9791 417.433 30.2035 419.181 35.1678 415.016C39.324 411.528 139.748 317.575 172.336 287.076C172.805 286.636 172.184 285.922 171.684 286.327C137.024 314.393 30.2998 400.825 26.1688 404.291Z" fill="url(#paint14_linear)"/>
<path d="M901.283 668.553C914.188 657.725 911.168 654.126 909.688 652.362C908.208 650.598 902.926 648.899 892.284 657.828C883.376 665.303 662.697 860.161 591.047 923.438C590.555 923.872 591.186 924.611 591.692 924.194C665.412 863.352 892.428 675.983 901.283 668.553Z" fill="url(#paint15_linear)"/>
<path d="M879.498 386.141C866.593 396.969 869.613 400.567 871.093 402.331C872.573 404.095 877.856 405.794 888.497 396.865C897.405 389.391 1118.08 194.532 1189.73 131.255C1190.23 130.821 1189.6 130.083 1189.09 130.5C1115.37 191.342 888.353 378.71 879.498 386.141Z" fill="url(#paint16_linear)"/>
<path d="M70.2073 1033.36C42.8717 1057.24 44.485 1064.01 46.4178 1066.31C48.3505 1068.62 58.7219 1066.86 81.9592 1047.36C101.955 1030.58 467.786 710.248 569.444 621.218C569.938 620.785 569.311 620.048 568.804 620.466C463.882 707.203 84.3599 1020.99 70.2073 1033.36Z" fill="url(#paint17_linear)"/>
<path d="M743.567 362.979C750.309 357.322 748.001 353.126 746.521 351.362C745.041 349.599 741.31 346.597 734.568 352.255C728.924 356.99 616.581 460.942 580.124 494.689C579.65 495.128 580.277 495.844 580.777 495.437C619.47 463.985 738.938 366.863 743.567 362.979Z" fill="url(#paint18_linear)"/>
<path d="M1130.56 561.215C1117 572.593 1120.34 576.575 1121.82 578.339C1123.3 580.102 1128.38 581.322 1139.56 571.94C1148.09 564.782 1341.63 394.339 1432.93 313.913C1433.92 313.045 1432.65 311.564 1431.64 312.4C1337.84 389.881 1139.04 554.1 1130.56 561.215Z" fill="url(#paint19_linear)"/>
<path d="M1149.22 680.478C1162.78 669.1 1159.44 665.119 1157.96 663.355C1156.48 661.591 1151.4 660.371 1140.22 669.754C1131.69 676.911 938.152 847.354 846.85 927.781C845.866 928.648 847.129 930.129 848.141 929.293C941.944 851.812 1140.74 687.593 1149.22 680.478Z" fill="url(#paint20_linear)"/>
<path d="M376.21 192.207C346.516 216.663 341.412 213.993 340.412 213C339.412 212.008 337.174 207.11 368.062 180.856C394.021 158.791 615.201 -16.5226 685.125 -71.9089C685.638 -72.3153 686.242 -71.5629 685.744 -71.1381C617.568 -12.9589 401.182 171.64 376.21 192.207Z" fill="url(#paint21_linear)"/>
<path d="M202.809 86.9857C215.49 75.3931 212.619 69.6822 210.687 67.3788C208.754 65.0754 202.046 63.7588 191.057 72.9803C181.599 80.9161 12.0356 236.565 -35.0645 279.814C-35.5409 280.252 -34.9213 280.968 -34.4194 280.56C15.5424 239.942 196.243 92.9875 202.809 86.9857Z" fill="url(#paint22_linear)"/>
<path d="M1347.19 82.3533C1357.48 73.7246 1354.14 69.7431 1352.66 67.9793C1351.18 66.2155 1346.68 64.5133 1338.2 71.6287C1331.73 77.057 1185.9 207.462 1117.12 268.994C1116.15 269.864 1117.4 271.332 1118.41 270.503C1189.7 211.918 1340.76 87.7492 1347.19 82.3533Z" fill="url(#paint23_linear)"/>
<path d="M436.106 649.157C456.669 631.903 454.519 629.34 453.566 628.205C452.614 627.07 447.271 628.026 430.314 642.255C418.508 652.161 170.15 864.87 20.3465 993.19C19.3408 994.052 20.6131 995.558 21.6304 994.71C173.162 868.404 424.37 659.005 436.106 649.157Z" fill="url(#paint24_linear)"/>
<path d="M579.015 464.509C589.298 455.881 602.885 438.144 594.111 429.604C585.336 421.065 567.674 433.772 559.194 440.887C552.027 446.901 379.698 613.247 326.491 664.629C325.575 665.513 326.816 666.917 327.809 666.121C385.454 619.923 571.893 470.486 579.015 464.509Z" fill="url(#paint25_linear)"/>
<path d="M854.677 585.907C878.128 565.413 891.301 549.559 882.981 542.443C874.662 535.327 849.481 554.582 837.106 564.967C826.759 573.649 574.471 804.211 492.065 879.542C491.109 880.416 492.356 881.863 493.361 881.044C579.868 810.535 844.567 594.741 854.677 585.907Z" fill="url(#paint26_linear)"/>
<path d="M167.114 585.513C162.48 589.401 157.066 589.951 154.855 587.315C152.643 584.678 153.358 580.085 158.758 575.554C162.822 572.144 214.868 535.741 240.377 517.933C241.408 517.214 242.556 518.648 241.616 519.482C217.965 540.481 169.274 583.701 167.114 585.513Z" fill="url(#paint27_linear)"/>
<path d="M774.593 82.3304C783.329 75 786.349 78.5985 787.829 80.3623C789.309 82.1262 790.796 87.0102 783.592 93.055C777.561 98.1153 620.16 220.504 569.054 260.232C568.54 260.631 567.932 259.887 568.425 259.463C617.493 217.274 768.599 87.3604 774.593 82.3304Z" fill="url(#paint28_linear)"/>
<path d="M63.7038 797.103C46.4994 811.539 44.8924 809.624 44.2496 808.858C43.6068 808.092 41.9999 806.177 59.2043 791.741C72.325 780.731 296.662 596.51 402.422 509.675C402.933 509.255 403.568 510.007 403.062 510.434C297.723 599.438 73.3492 789.01 63.7038 797.103Z" fill="url(#paint29_linear)"/>
<path d="M51.5985 870.734C42.2399 878.586 30.7039 880.603 27.6007 877.364C24.4976 874.126 31.3147 863.004 39.3519 856.139C46.2834 850.218 273.42 673.695 335.782 625.239C336.295 624.84 336.901 625.579 336.408 626.003C276.701 677.346 59.6666 863.964 51.5985 870.734Z" fill="url(#paint30_linear)"/>
<path d="M385.21 454.207C355.516 478.663 350.412 475.993 349.412 475C348.412 474.008 346.174 469.11 377.062 442.856C403.021 420.791 624.201 245.477 694.125 190.091C694.638 189.685 695.242 190.437 694.744 190.862C626.568 249.041 410.182 433.64 385.21 454.207Z" fill="url(#paint31_linear)"/>
<path d="M40.7289 96.0585C36.9138 98.7808 30.2798 99.205 27.2064 95.6204C24.1331 92.0359 26.085 86.3601 29.8392 82.8453C33.0619 79.8282 72.1067 60.22 83.0985 54.7279C83.6097 54.4725 84.0703 55.1261 83.6591 55.5229C74.9026 63.9704 43.9993 93.7248 40.7289 96.0585Z" fill="url(#paint32_linear)"/>
<path d="M1058.55 347.804C1071.42 337 1073.36 339.313 1074.31 340.447C1075.27 341.581 1074.95 345.789 1064.33 354.698C1055.91 361.767 850.642 528.411 766.194 596.96C765.682 597.376 765.057 596.622 765.56 596.195C848.516 525.842 1050.17 354.831 1058.55 347.804Z" fill="url(#paint33_linear)"/>
<path d="M925.661 166.417C912.785 177.22 910.844 174.907 909.893 173.773C908.941 172.639 909.258 168.431 919.876 159.522C928.3 152.453 1133.56 -14.1904 1218.01 -82.7396C1218.52 -83.1553 1219.15 -82.4016 1218.65 -81.975C1135.69 -11.6219 934.035 159.39 925.661 166.417Z" fill="url(#paint34_linear)"/>
<path d="M443.928 232.122C455.334 222.551 454.492 217.126 453.012 215.362C451.532 213.598 444.335 213.505 434.929 221.397C427.056 228.004 232.555 400.896 169.407 457.039C168.918 457.473 169.548 458.209 170.052 457.794C235.27 404.086 436.102 238.689 443.928 232.122Z" fill="url(#paint35_linear)"/>
<path d="M1436.11 129.706C1455.97 113.04 1457.83 107.558 1456.88 106.43C1455.94 105.302 1446.73 109.104 1430.35 122.847C1417.37 133.743 1108.17 398.746 980.614 508.081C980.111 508.512 980.747 509.264 981.255 508.84C1110.33 401.277 1423.2 140.538 1436.11 129.706Z" fill="url(#paint36_linear)"/>
<path d="M1429.14 283.337C1456.47 259.448 1454.86 252.682 1452.93 250.379C1451 248.075 1440.62 249.833 1417.39 269.332C1397.39 286.11 1031.56 606.445 929.902 695.475C929.407 695.908 930.035 696.645 930.541 696.226C1035.46 609.49 1414.99 295.705 1429.14 283.337Z" fill="url(#paint37_linear)"/>
<path d="M155.453 374.801C148.711 380.458 151.019 384.654 152.499 386.417C153.979 388.181 157.71 391.183 164.452 385.525C170.096 380.789 282.438 276.838 318.895 243.091C319.369 242.652 318.743 241.936 318.242 242.343C279.55 273.795 160.082 370.916 155.453 374.801Z" fill="url(#paint38_linear)"/>
<path d="M507.057 592.571C520.617 581.193 517.276 577.211 515.796 575.448C514.316 573.684 509.239 572.464 498.058 581.846C489.527 589.004 295.988 759.447 204.686 839.874C203.702 840.741 204.965 842.222 205.977 841.386C299.78 763.905 498.577 599.686 507.057 592.571Z" fill="url(#paint39_linear)"/>
<path d="M100.735 598.342C91.999 605.672 88.9796 602.073 87.4995 600.31C86.0195 598.546 84.5321 593.662 91.736 587.617C97.7667 582.557 255.168 460.168 306.274 420.44C306.788 420.041 307.396 420.784 306.903 421.208C257.836 463.398 106.73 593.311 100.735 598.342Z" fill="url(#paint40_linear)"/>
<path d="M543.031 89.4459C553.314 80.8173 549.973 76.8358 548.493 75.072C547.013 73.3081 542.511 71.606 534.032 78.7213C527.562 84.1497 381.739 214.555 312.955 276.086C311.982 276.957 313.241 278.424 314.249 277.595C385.533 219.011 536.6 94.8418 543.031 89.4459Z" fill="url(#paint41_linear)"/>
<path d="M795.511 362.629C774.948 379.884 777.098 382.446 778.051 383.582C779.003 384.717 784.346 383.76 801.303 369.532C813.109 359.625 1061.47 146.916 1211.27 18.596C1212.28 17.7344 1211 16.2284 1209.99 17.0764C1058.46 143.382 807.247 352.781 795.511 362.629Z" fill="url(#paint42_linear)"/>
<path d="M178.085 224.847C167.801 233.475 153.129 249.918 159.178 255.21C165.228 260.502 182.528 247.363 191.008 240.248C197.838 234.517 358.062 87.1963 420.155 30.0832C421.107 29.2075 419.857 27.763 418.854 28.5799C353.474 81.8251 184.873 219.15 178.085 224.847Z" fill="url(#paint43_linear)"/>
<path d="M696.206 -5.21871C700.84 -9.10744 706.254 -9.65679 708.466 -7.0207C710.678 -4.38461 709.963 0.208345 704.562 4.73987C700.498 8.15005 648.452 44.553 622.943 62.3604C621.912 63.08 620.764 61.6461 621.705 60.8115C645.355 39.8125 694.047 -3.40677 696.206 -5.21871Z" fill="url(#paint44_linear)"/>
<rect opacity="0.75" width="1120" height="720" fill="#02111D"/>
</g>
<defs>
<linearGradient id="paint0_linear" x1="582.599" y1="727.462" x2="1119.87" y2="281.017" gradientUnits="userSpaceOnUse">
<stop stop-color="#00FFC2"/>
<stop offset="1" stop-color="#00FFC2" stop-opacity="0"/>
</linearGradient>
<linearGradient id="paint1_linear" x1="930.972" y1="38.3867" x2="545.106" y2="359.904" gradientUnits="userSpaceOnUse">
<stop stop-color="#00FFC2"/>
<stop offset="1" stop-color="#00FFC2" stop-opacity="0"/>
</linearGradient>
<linearGradient id="paint2_linear" x1="995.532" y1="269.175" x2="681.123" y2="532.995" gradientUnits="userSpaceOnUse">
<stop stop-color="#FF006B"/>
<stop offset="1" stop-color="#FF006B" stop-opacity="0"/>
</linearGradient>
<linearGradient id="paint3_linear" x1="878.247" y1="830.518" x2="1192.66" y2="566.698" gradientUnits="userSpaceOnUse">
<stop stop-color="#FF006B"/>
<stop offset="1" stop-color="#FF006B" stop-opacity="0"/>
</linearGradient>
<linearGradient id="paint4_linear" x1="852.42" y1="276.68" x2="959.656" y2="186.698" gradientUnits="userSpaceOnUse">
<stop stop-color="#FF006B"/>
<stop offset="1" stop-color="#FF006B" stop-opacity="0"/>
</linearGradient>
<linearGradient id="paint5_linear" x1="996.581" y1="572.039" x2="1358.61" y2="268.264" gradientUnits="userSpaceOnUse">
<stop stop-color="#FF006B"/>
<stop offset="1" stop-color="#FF006B" stop-opacity="0"/>
</linearGradient>
<linearGradient id="paint6_linear" x1="827.585" y1="478.41" x2="465.56" y2="782.185" gradientUnits="userSpaceOnUse">
<stop stop-color="#FF006B"/>
<stop offset="1" stop-color="#FF006B" stop-opacity="0"/>
</linearGradient>
<linearGradient id="paint7_linear" x1="557.515" y1="219.762" x2="505.603" y2="263.321" gradientUnits="userSpaceOnUse">
<stop stop-color="#7000FF"/>
<stop offset="1" stop-color="#7000FF" stop-opacity="0"/>
</linearGradient>
<linearGradient id="paint8_linear" x1="540.021" y1="906.379" x2="1036.38" y2="489.883" gradientUnits="userSpaceOnUse">
<stop stop-color="#FF006B"/>
<stop offset="1" stop-color="#FF006B" stop-opacity="0"/>
</linearGradient>
<linearGradient id="paint9_linear" x1="292.157" y1="384.998" x2="-204.202" y2="801.494" gradientUnits="userSpaceOnUse">
<stop stop-color="#FF006B"/>
<stop offset="1" stop-color="#FF006B" stop-opacity="0"/>
</linearGradient>
<linearGradient id="paint10_linear" x1="82.3305" y1="721.614" x2="424.432" y2="434.557" gradientUnits="userSpaceOnUse">
<stop stop-color="#FF006B"/>
<stop offset="1" stop-color="#FF006B" stop-opacity="0"/>
</linearGradient>
<linearGradient id="paint11_linear" x1="584.994" y1="576.716" x2="242.893" y2="863.773" gradientUnits="userSpaceOnUse">
<stop stop-color="#FF006B"/>
<stop offset="1" stop-color="#FF006B" stop-opacity="0"/>
</linearGradient>
<linearGradient id="paint12_linear" x1="336.282" y1="18.9434" x2="181.608" y2="148.731" gradientUnits="userSpaceOnUse">
<stop stop-color="#00FFC2"/>
<stop offset="1" stop-color="#00FFC2" stop-opacity="0"/>
</linearGradient>
<linearGradient id="paint13_linear" x1="995.844" y1="482.945" x2="932.473" y2="536.12" gradientUnits="userSpaceOnUse">
<stop stop-color="#00FFC2"/>
<stop offset="1" stop-color="#00FFC2" stop-opacity="0"/>
</linearGradient>
<linearGradient id="paint14_linear" x1="24.9696" y1="415.088" x2="179.644" y2="285.301" gradientUnits="userSpaceOnUse">
<stop stop-color="#00FFC2"/>
<stop offset="1" stop-color="#00FFC2" stop-opacity="0"/>
</linearGradient>
<linearGradient id="paint15_linear" x1="909.688" y1="652.362" x2="586.418" y2="923.619" gradientUnits="userSpaceOnUse">
<stop stop-color="#7000FF"/>
<stop offset="1" stop-color="#7000FF" stop-opacity="0"/>
</linearGradient>
<linearGradient id="paint16_linear" x1="871.093" y1="402.332" x2="1194.36" y2="131.075" gradientUnits="userSpaceOnUse">
<stop stop-color="#7000FF"/>
<stop offset="1" stop-color="#7000FF" stop-opacity="0"/>
</linearGradient>
<linearGradient id="paint17_linear" x1="55.6767" y1="1057.49" x2="566.972" y2="628.461" gradientUnits="userSpaceOnUse">
<stop stop-color="#7000FF"/>
<stop offset="1" stop-color="#7000FF" stop-opacity="0"/>
</linearGradient>
<linearGradient id="paint18_linear" x1="745.809" y1="351.959" x2="576.907" y2="493.685" gradientUnits="userSpaceOnUse">
<stop stop-color="#7000FF"/>
<stop offset="1" stop-color="#7000FF" stop-opacity="0"/>
</linearGradient>
<linearGradient id="paint19_linear" x1="1121.5" y1="577.956" x2="1444.16" y2="307.214" gradientUnits="userSpaceOnUse">
<stop stop-color="#EB00FF"/>
<stop offset="1" stop-color="#EB00FF" stop-opacity="0"/>
</linearGradient>
<linearGradient id="paint20_linear" x1="1158.28" y1="663.738" x2="835.624" y2="934.479" gradientUnits="userSpaceOnUse">
<stop stop-color="#EB00FF"/>
<stop offset="1" stop-color="#EB00FF" stop-opacity="0"/>
</linearGradient>
<linearGradient id="paint21_linear" x1="341.581" y1="212.039" x2="703.606" y2="-91.7361" gradientUnits="userSpaceOnUse">
<stop stop-color="#FF006B"/>
<stop offset="1" stop-color="#FF006B" stop-opacity="0"/>
</linearGradient>
<linearGradient id="paint22_linear" x1="206.582" y1="71.8794" x2="-35.2294" y2="274.783" gradientUnits="userSpaceOnUse">
<stop stop-color="#7000FF"/>
<stop offset="1" stop-color="#7000FF" stop-opacity="0"/>
</linearGradient>
<linearGradient id="paint23_linear" x1="1352.98" y1="68.3622" x2="1108.29" y2="273.682" gradientUnits="userSpaceOnUse">
<stop stop-color="#EB00FF"/>
<stop offset="1" stop-color="#EB00FF" stop-opacity="0"/>
</linearGradient>
<linearGradient id="paint24_linear" x1="453.773" y1="628.451" x2="-35.5373" y2="1039.03" gradientUnits="userSpaceOnUse">
<stop stop-color="#EB00FF"/>
<stop offset="1" stop-color="#EB00FF" stop-opacity="0"/>
</linearGradient>
<linearGradient id="paint25_linear" x1="579.387" y1="444.069" x2="334.697" y2="649.389" gradientUnits="userSpaceOnUse">
<stop stop-color="#EB00FF"/>
<stop offset="1" stop-color="#EB00FF" stop-opacity="0"/>
</linearGradient>
<linearGradient id="paint26_linear" x1="860.899" y1="562.845" x2="503.798" y2="862.488" gradientUnits="userSpaceOnUse">
<stop stop-color="#EB00FF"/>
<stop offset="1" stop-color="#EB00FF" stop-opacity="0"/>
</linearGradient>
<linearGradient id="paint27_linear" x1="159.451" y1="583.458" x2="242.385" y2="513.867" gradientUnits="userSpaceOnUse">
<stop stop-color="#EB00FF"/>
<stop offset="1" stop-color="#EB00FF" stop-opacity="0"/>
</linearGradient>
<linearGradient id="paint28_linear" x1="788.15" y1="80.7453" x2="563.699" y2="269.082" gradientUnits="userSpaceOnUse">
<stop stop-color="#00FFC2"/>
<stop offset="1" stop-color="#00FFC2" stop-opacity="0"/>
</linearGradient>
<linearGradient id="paint29_linear" x1="45.8932" y1="807.153" x2="431.759" y2="485.635" gradientUnits="userSpaceOnUse">
<stop stop-color="#00FFC2"/>
<stop offset="1" stop-color="#00FFC2" stop-opacity="0"/>
</linearGradient>
<linearGradient id="paint30_linear" x1="33.9366" y1="873.118" x2="348.345" y2="609.298" gradientUnits="userSpaceOnUse">
<stop stop-color="#FF006B"/>
<stop offset="1" stop-color="#FF006B" stop-opacity="0"/>
</linearGradient>
<linearGradient id="paint31_linear" x1="350.581" y1="474.039" x2="712.606" y2="170.264" gradientUnits="userSpaceOnUse">
<stop stop-color="#FF006B"/>
<stop offset="1" stop-color="#FF006B" stop-opacity="0"/>
</linearGradient>
<linearGradient id="paint32_linear" x1="30.833" y1="93.0266" x2="82.7449" y2="49.4673" gradientUnits="userSpaceOnUse">
<stop stop-color="#7000FF"/>
<stop offset="1" stop-color="#7000FF" stop-opacity="0"/>
</linearGradient>
<linearGradient id="paint33_linear" x1="1073.99" y1="340.716" x2="731.893" y2="627.773" gradientUnits="userSpaceOnUse">
<stop stop-color="#FF006B"/>
<stop offset="1" stop-color="#FF006B" stop-opacity="0"/>
</linearGradient>
<linearGradient id="paint34_linear" x1="910.213" y1="173.504" x2="1252.31" y2="-113.553" gradientUnits="userSpaceOnUse">
<stop stop-color="#FF006B"/>
<stop offset="1" stop-color="#FF006B" stop-opacity="0"/>
</linearGradient>
<linearGradient id="paint35_linear" x1="450.513" y1="216.806" x2="157.465" y2="462.703" gradientUnits="userSpaceOnUse">
<stop stop-color="#00FFC2"/>
<stop offset="1" stop-color="#00FFC2" stop-opacity="0"/>
</linearGradient>
<linearGradient id="paint36_linear" x1="1452.89" y1="109.366" x2="942.583" y2="537.56" gradientUnits="userSpaceOnUse">
<stop stop-color="#00FFC2"/>
<stop offset="1" stop-color="#00FFC2" stop-opacity="0"/>
</linearGradient>
<linearGradient id="paint37_linear" x1="1443.67" y1="259.204" x2="932.374" y2="688.232" gradientUnits="userSpaceOnUse">
<stop stop-color="#7000FF"/>
<stop offset="1" stop-color="#7000FF" stop-opacity="0"/>
</linearGradient>
<linearGradient id="paint38_linear" x1="153.21" y1="385.821" x2="322.113" y2="244.095" gradientUnits="userSpaceOnUse">
<stop stop-color="#7000FF"/>
<stop offset="1" stop-color="#7000FF" stop-opacity="0"/>
</linearGradient>
<linearGradient id="paint39_linear" x1="516.117" y1="575.83" x2="193.46" y2="846.572" gradientUnits="userSpaceOnUse">
<stop stop-color="#EB00FF"/>
<stop offset="1" stop-color="#EB00FF" stop-opacity="0"/>
</linearGradient>
<linearGradient id="paint40_linear" x1="87.1781" y1="599.927" x2="311.629" y2="411.59" gradientUnits="userSpaceOnUse">
<stop stop-color="#00FFC2"/>
<stop offset="1" stop-color="#00FFC2" stop-opacity="0"/>
</linearGradient>
<linearGradient id="paint41_linear" x1="548.814" y1="75.4548" x2="304.123" y2="280.775" gradientUnits="userSpaceOnUse">
<stop stop-color="#EB00FF"/>
<stop offset="1" stop-color="#EB00FF" stop-opacity="0"/>
</linearGradient>
<linearGradient id="paint42_linear" x1="777.844" y1="383.335" x2="1267.15" y2="-27.245" gradientUnits="userSpaceOnUse">
<stop stop-color="#EB00FF"/>
<stop offset="1" stop-color="#EB00FF" stop-opacity="0"/>
</linearGradient>
<linearGradient id="paint43_linear" x1="174.263" y1="241.176" x2="418.954" y2="35.8563" gradientUnits="userSpaceOnUse">
<stop stop-color="#EB00FF"/>
<stop offset="1" stop-color="#EB00FF" stop-opacity="0"/>
</linearGradient>
<linearGradient id="paint44_linear" x1="703.87" y1="-3.16382" x2="620.935" y2="66.4264" gradientUnits="userSpaceOnUse">
<stop stop-color="#EB00FF"/>
<stop offset="1" stop-color="#EB00FF" stop-opacity="0"/>
</linearGradient>
<clipPath id="clip0">
<rect width="1120" height="720" fill="white"/>
</clipPath>
</defs>
</svg>
