<svg width="44" height="44" viewBox="0 0 44 44" fill="none" xmlns="http://www.w3.org/2000/svg">
<circle opacity="0.2" cx="22" cy="22" r="22" fill="white"/>
<path d="M33 16.9375H26.3125V15.3125H33V16.9375ZM22 23.2188C22.5 23.9479 22.75 24.8333 22.75 25.875C22.75 26.7083 22.5833 27.4375 22.25 28.0625C21.9583 28.6458 21.5208 29.125 20.9375 29.5C20.4375 29.875 19.8125 30.1667 19.0625 30.375C18.4792 30.5417 17.7708 30.625 16.9375 30.625H9V14H16.75C17.25 14 17.9583 14.1042 18.875 14.3125C19.4167 14.4375 19.9583 14.6875 20.5 15.0625C20.9583 15.3542 21.3333 15.7708 21.625 16.3125C21.875 16.8542 22 17.5 22 18.25C22 19.0833 21.8021 19.7812 21.4062 20.3438C21.0104 20.9062 20.4583 21.3542 19.75 21.6875C20.75 21.9792 21.5 22.4896 22 23.2188ZM12.4375 20.6875H16.25C16.9583 20.6875 17.5 20.5625 17.875 20.3125C18.2917 20.0208 18.5 19.5417 18.5 18.875C18.5 18.5 18.4271 18.1875 18.2812 17.9375C18.1354 17.6875 17.9375 17.5 17.6875 17.375C17.4375 17.2083 17.1875 17.1042 16.9375 17.0625C16.5625 16.9792 16.25 16.9375 16 16.9375H12.4375V20.6875ZM19.125 25.6875C19.125 24.8542 18.8958 24.25 18.4375 23.875C17.9792 23.5417 17.3542 23.375 16.5625 23.375H12.4375V27.9375H16.4375C16.7292 27.9375 17.0833 27.8958 17.5 27.8125C17.8333 27.7292 18.1146 27.6146 18.3438 27.4688C18.5729 27.3229 18.7708 27.0833 18.9375 26.75C19.0625 26.5 19.125 26.1458 19.125 25.6875ZM35.625 25.5H27.0625C27.0625 26.5 27.3333 27.2708 27.875 27.8125C28.375 28.2708 29.0833 28.5 30 28.5C30.625 28.5 31.1875 28.3333 31.6875 28C32.1875 27.625 32.4792 27.25 32.5625 26.875H35.4375C35.0208 28.3333 34.3125 29.375 33.3125 30C32.3125 30.6667 31.1667 31 29.875 31C28.9583 31 28.125 30.8542 27.375 30.5625C26.625 30.2708 25.9792 29.8333 25.4375 29.25C24.8958 28.7083 24.5 28.0417 24.25 27.25C23.9583 26.5 23.8125 25.6667 23.8125 24.75C23.8125 23.8333 23.9583 22.9896 24.25 22.2188C24.5417 21.4479 24.9583 20.7708 25.5 20.1875C26.0417 19.6458 26.6667 19.2083 27.375 18.875C28.125 18.5417 28.9583 18.375 29.875 18.375C30.875 18.375 31.75 18.5729 32.5 18.9688C33.25 19.3646 33.875 19.8958 34.375 20.5625C34.8333 21.1875 35.1875 21.9583 35.4375 22.875C35.6458 23.75 35.7083 24.625 35.625 25.5ZM32.375 23.375C32.2917 22.625 32.0417 22 31.625 21.5C31.25 21.0833 30.6458 20.875 29.8125 20.875C29.2708 20.875 28.8333 20.9688 28.5 21.1562C28.1667 21.3438 27.8854 21.5625 27.6562 21.8125C27.4271 22.0625 27.2917 22.3333 27.25 22.625C27.125 22.9167 27.0625 23.1667 27.0625 23.375H32.375Z" fill="white"/>
</svg>
