<svg width="48" height="46" viewBox="0 0 48 46" fill="none" xmlns="http://www.w3.org/2000/svg">
<path d="M40.0312 40H48C48 41.5 47.6094 42.7708 46.8281 43.8125C46.0469 44.8542 45.0938 45.375 43.9688 45.375H4.03125C2.90625 45.375 1.95312 44.8542 1.17188 43.8125C0.390625 42.7708 0 41.5 0 40H7.96875C6.90625 40 5.98438 39.4792 5.20312 38.4375C4.42188 37.3958 4.03125 36.125 4.03125 34.625V5.375C4.03125 3.875 4.42188 2.60417 5.20312 1.5625C5.98438 0.520833 6.90625 0 7.96875 0H40.0312C41.0938 0 42.0156 0.520833 42.7969 1.5625C43.5781 2.60417 43.9688 3.875 43.9688 5.375V34.625C43.9688 36.125 43.5781 37.3958 42.7969 38.4375C42.0156 39.4792 41.0938 40 40.0312 40ZM7.96875 5.375V34.625H40.0312V5.375H7.96875ZM24 42.625C24.5625 42.625 25.0312 42.375 25.4062 41.875C25.7812 41.375 25.9688 40.75 25.9688 40C25.9688 39.25 25.7812 38.625 25.4062 38.125C25.0312 37.625 24.5625 37.375 24 37.375C23.4375 37.375 22.9688 37.625 22.5938 38.125C22.2188 38.625 22.0312 39.25 22.0312 40C22.0312 40.75 22.2188 41.375 22.5938 41.875C22.9688 42.375 23.4375 42.625 24 42.625Z" fill="#02111D"/>
</svg>
