<svg width="51" height="48" viewBox="0 0 51 48" fill="none" xmlns="http://www.w3.org/2000/svg">
<path d="M5.78962 39L9.96819 34.8214L13.1825 38.0357L9.00391 42.2143L5.78962 39ZM22.8253 47.8929V41.1429H27.4325V47.8929H22.8253ZM6.86105 20.5714V25.1786H0.00390625V20.5714H6.86105ZM32.0396 11.0357C34.111 12.25 35.7718 13.8929 37.0218 15.9643C38.2718 18.0357 38.8968 20.3214 38.8968 22.8214C38.8968 26.6071 37.5575 29.8393 34.8789 32.5179C32.2003 35.1964 28.9682 36.5357 25.1825 36.5357C21.3968 36.5357 18.1646 35.1964 15.486 32.5179C12.8075 29.8393 11.4682 26.6071 11.4682 22.8214C11.4682 20.3214 12.0753 18.0357 13.2896 15.9643C14.5039 13.8929 16.1825 12.25 18.3253 11.0357V0H32.0396V11.0357ZM43.3968 20.5714H50.2539V25.1786H43.3968V20.5714ZM37.0753 38.0357L40.2896 34.9286L44.4682 39L41.2539 42.2143L37.0753 38.0357Z" fill="#02111D"/>
</svg>
