<svg width="44" height="44" viewBox="0 0 44 44" fill="none" xmlns="http://www.w3.org/2000/svg">
<circle opacity="0.2" cx="22" cy="22" r="22" fill="white"/>
<path d="M34 18.3125C34 19.8958 33.7812 21.25 33.3438 22.375C32.9062 23.5 32.2708 24.3646 31.4375 24.9688C30.6042 25.5729 29.7708 26.0104 28.9375 26.2812C28.1042 26.5521 27.125 26.75 26 26.875C26.7917 27.5417 27.1875 28.6042 27.1875 30.0625V35.6875H18.5V31.625C17.8333 31.75 17.2188 31.8125 16.6562 31.8125C16.0938 31.8125 15.6146 31.7604 15.2188 31.6562C14.8229 31.5521 14.4688 31.4167 14.1562 31.25C13.8438 31.0833 13.5938 30.9062 13.4062 30.7188C13.2188 30.5312 13.0625 30.3542 12.9375 30.1875C12.8125 30.0208 12.7292 29.875 12.6875 29.75L12.625 29.5625C12.375 28.9792 12.0938 28.4792 11.7812 28.0625C11.4688 27.6458 11.2083 27.375 11 27.25L10.6875 27.0625C10.2292 26.6875 10 26.4271 10 26.2812C10 26.1354 10.1458 26.0417 10.4375 26H10.8125C11.3125 26.0417 11.7917 26.2083 12.25 26.5C12.7083 26.7917 13.0208 27.0833 13.1875 27.375L13.5 27.75C14.625 29.7083 16.3125 30.1875 18.5625 29.1875C18.6875 28.1875 19.0625 27.4167 19.6875 26.875C18.5625 26.75 17.5833 26.5521 16.75 26.2812C15.9167 26.0104 15.0938 25.5729 14.2812 24.9688C13.4688 24.3646 12.8333 23.5 12.375 22.375C11.9167 21.25 11.6875 19.8958 11.6875 18.3125C11.6875 16.5208 12.2917 14.9792 13.5 13.6875C12.9583 12.3125 13.0208 10.7708 13.6875 9.0625C13.8125 9.10417 13.9792 9.09375 14.1875 9.03125C14.3958 8.96875 14.9167 9.09375 15.75 9.40625C16.5833 9.71875 17.5 10.2083 18.5 10.875C19.875 10.5 21.3333 10.2917 22.875 10.25C24.375 10.2917 25.8333 10.5 27.25 10.875C28.2083 10.2083 29.0938 9.72917 29.9062 9.4375C30.7188 9.14583 31.2708 9 31.5625 9L32 9.0625C32.7083 10.7708 32.7708 12.3125 32.1875 13.6875C33.3958 14.9792 34 16.5208 34 18.3125ZM12 26.7812C12.0417 26.6771 11.9896 26.5938 11.8438 26.5312C11.6979 26.4688 11.6042 26.4896 11.5625 26.5938C11.5208 26.6979 11.5729 26.7812 11.7188 26.8438C11.8646 26.9062 11.9583 26.8854 12 26.7812ZM12.7188 27.5625C12.8229 27.4792 12.8021 27.3646 12.6562 27.2188C12.5104 27.0729 12.3854 27.0417 12.2812 27.125C12.1771 27.2083 12.1979 27.3229 12.3438 27.4688C12.4896 27.6146 12.6146 27.6458 12.7188 27.5625ZM13.375 28.5625C13.5 28.4792 13.5 28.3438 13.375 28.1562C13.25 27.9688 13.125 27.9167 13 28C12.875 28.0833 12.875 28.2188 13 28.4062C13.125 28.5938 13.25 28.6458 13.375 28.5625ZM14.3438 29.5625C14.4479 29.4375 14.4167 29.2812 14.25 29.0938C14.0833 28.9062 13.9375 28.875 13.8125 29C13.6875 29.125 13.7188 29.2812 13.9062 29.4688C14.0938 29.6562 14.2396 29.6875 14.3438 29.5625ZM15.625 30.0938C15.6667 29.9479 15.5729 29.8333 15.3438 29.75C15.1146 29.6667 14.9792 29.7083 14.9375 29.875C14.8958 30.0417 14.9896 30.1562 15.2188 30.2188C15.4479 30.2812 15.5833 30.2396 15.625 30.0938ZM16.6875 30.4375C16.9375 30.4375 17.0625 30.3542 17.0625 30.1875C17.0625 30.0208 16.9375 29.9375 16.6875 29.9375C16.4375 29.9375 16.3125 30.0208 16.3125 30.1875C16.3125 30.3542 16.4375 30.4375 16.6875 30.4375ZM18.0625 30.3125C18.1875 30.2708 18.2812 30.2188 18.3438 30.1562C18.4062 30.0938 18.4167 30.0417 18.375 30C18.375 29.7917 18.25 29.7083 18 29.75C17.875 29.7917 17.7812 29.8438 17.7188 29.9062C17.6562 29.9688 17.6458 30.0417 17.6875 30.125C17.6875 30.2917 17.8125 30.3542 18.0625 30.3125Z" fill="white"/>
</svg>
