<svg width="48" height="48" viewBox="0 0 48 48" fill="none" xmlns="http://www.w3.org/2000/svg">
<path d="M23.7222 0.333313C30.2778 0.333313 35.8704 2.64813 40.5 7.27776C45.1296 11.9074 47.4444 17.4815 47.4444 24C47.4444 30.5185 45.1296 36.0926 40.5 40.7222C35.8704 45.3518 30.2778 47.6666 23.7222 47.6666C17.1667 47.6666 11.5741 45.3518 6.94444 40.7222C2.31481 36.0926 0 30.5185 0 24C0 17.4815 2.31481 11.9074 6.94444 7.27776C11.5741 2.64813 17.1667 0.333313 23.7222 0.333313ZM40.1111 14.5555C37.7407 10.4074 34.3333 7.59257 29.8889 6.11109C31.2963 8.70368 32.3704 11.5185 33.1111 14.5555H40.1111ZM23.6667 5.11109C21.6667 7.99998 20.1852 11.1481 19.2222 14.5555H28.2222C27.1852 11.1481 25.6667 7.99998 23.6667 5.11109ZM5.33333 28.7778H13.3333C13.1111 26.9259 13 25.3333 13 24C13 22.6666 13.1111 21.0741 13.3333 19.2222H5.33333C4.96296 20.9259 4.77778 22.5185 4.77778 24C4.77778 25.4815 4.96296 27.0741 5.33333 28.7778ZM7.33333 33.4444C9.7037 37.5926 13.1111 40.4074 17.5556 41.8889C16.1481 39.2963 15.0741 36.4815 14.3333 33.4444H7.33333ZM14.3333 14.5555C15.0741 11.5185 16.1481 8.70368 17.5556 6.11109C13.1111 7.59257 9.7037 10.4074 7.33333 14.5555H14.3333ZM23.6667 42.8889C25.6667 40 27.1852 36.8518 28.2222 33.4444H19.2222C20.1852 36.8518 21.6667 40 23.6667 42.8889ZM29.2222 28.7778C29.5185 26.9259 29.6667 25.3333 29.6667 24C29.6667 22.6666 29.5185 21.0741 29.2222 19.2222H18.1111C17.8889 21.0741 17.7778 22.6666 17.7778 24C17.7778 25.3333 17.8889 26.9259 18.1111 28.7778H29.2222ZM29.8889 41.8889C34.3333 40.4074 37.7407 37.5926 40.1111 33.4444H33.1111C32.3704 36.4815 31.2963 39.2963 29.8889 41.8889ZM34 28.7778H42C42.4444 27.0741 42.6667 25.4815 42.6667 24C42.6667 22.5185 42.4444 20.9259 42 19.2222H34C34.2222 21.0741 34.3333 22.6666 34.3333 24C34.3333 25.3333 34.2222 26.9259 34 28.7778Z" fill="white"/>
</svg>
