<svg width="45" height="48" viewBox="0 0 45 48" fill="none" xmlns="http://www.w3.org/2000/svg">
<path d="M44.4792 36.8H35.5208V41.1H40L33.3333 47.5L26.6667 41.1H31.1458V36.8H13.3333C12.0833 36.8 11.0243 36.3833 10.1562 35.55C9.28819 34.7167 8.85417 33.7 8.85417 32.5V15.5H0V11.2H8.85417V6.9H4.47917L11.1458 0.5L17.8125 6.9H13.3333V32.5H44.4792V36.8ZM17.8125 15.5V11.2H31.1458C32.3264 11.2 33.3507 11.6167 34.2188 12.45C35.0868 13.2833 35.5208 14.3 35.5208 15.5V28.3H31.1458V15.5H17.8125Z" fill="#02111D"/>
</svg>
