<svg width="44" height="44" viewBox="0 0 44 44" fill="none" xmlns="http://www.w3.org/2000/svg">
<circle opacity="0.2" cx="22" cy="22" r="22" fill="white"/>
<path d="M28.9375 22.6562C28.6042 22.2188 27.9792 22 27.0625 22C25.9375 22 25.1458 22.3333 24.6875 23C24.2292 23.6667 24 24.6042 24 25.8125V34.9375C24 35.1458 23.9375 35.3125 23.8125 35.4375C23.6875 35.5625 23.5208 35.625 23.3125 35.625H18.5625C18.3958 35.625 18.2396 35.5625 18.0938 35.4375C17.9479 35.3125 17.875 35.1458 17.875 34.9375V18.0625C17.875 17.8958 17.9479 17.7396 18.0938 17.5938C18.2396 17.4479 18.3958 17.375 18.5625 17.375H23.1875C23.3542 17.375 23.4896 17.4167 23.5938 17.5C23.6979 17.5833 23.7708 17.7083 23.8125 17.875V18.1875C23.8542 18.2708 23.875 18.4167 23.875 18.625C25.0417 17.5 26.625 16.9375 28.625 16.9375C30.8333 16.9375 32.5625 17.5 33.8125 18.625C35.0625 19.75 35.6875 21.3958 35.6875 23.5625V34.9375C35.6875 35.1458 35.6146 35.3125 35.4688 35.4375C35.3229 35.5625 35.1667 35.625 35 35.625H30.125C29.9583 35.625 29.8021 35.5625 29.6562 35.4375C29.5104 35.3125 29.4375 35.1458 29.4375 34.9375V24.6875C29.4375 23.7708 29.2708 23.0938 28.9375 22.6562ZM14.5 14.5312C13.875 15.1771 13.1146 15.5 12.2188 15.5C11.3229 15.5 10.5625 15.1771 9.9375 14.5312C9.3125 13.8854 9 13.1146 9 12.2188C9 11.3229 9.3125 10.5625 9.9375 9.9375C10.5625 9.3125 11.3229 9 12.2188 9C13.1146 9 13.875 9.3125 14.5 9.9375C15.125 10.5625 15.4375 11.3229 15.4375 12.2188C15.4375 13.1146 15.125 13.8854 14.5 14.5312ZM15.3125 18.0625V34.9375C15.3125 35.1458 15.2396 35.3125 15.0938 35.4375C14.9479 35.5625 14.7917 35.625 14.625 35.625H9.875C9.66667 35.625 9.5 35.5625 9.375 35.4375C9.25 35.3125 9.1875 35.1458 9.1875 34.9375V18.0625C9.1875 17.8958 9.25 17.7396 9.375 17.5938C9.5 17.4479 9.66667 17.375 9.875 17.375H14.625C14.7917 17.375 14.9479 17.4479 15.0938 17.5938C15.2396 17.7396 15.3125 17.8958 15.3125 18.0625Z" fill="white"/>
</svg>
