<svg width="38" height="48" viewBox="0 0 38 48" fill="none" xmlns="http://www.w3.org/2000/svg">
<path d="M37.6686 42L28.7209 32.8889C29.9729 30.8889 30.5988 28.7037 30.5988 26.3333C30.5988 23.0741 29.4574 20.2963 27.1744 18C24.8915 15.7037 22.1298 14.5556 18.8895 14.5556C15.6492 14.5556 12.8692 15.7037 10.5494 18C8.22965 20.2963 7.06977 23.0741 7.06977 26.3333C7.06977 29.5926 8.22965 32.3889 10.5494 34.7222C12.8692 37.0556 15.6492 38.2222 18.8895 38.2222C21.1725 38.2222 23.345 37.5556 25.407 36.2222L35.7907 46.7778C34.907 47.3704 33.9864 47.6667 33.0291 47.6667H4.63953C3.3876 47.6667 2.30136 47.2037 1.38081 46.2778C0.460271 45.3519 0 44.2593 0 43V5.00001C0 3.74075 0.460271 2.64816 1.38081 1.72223C2.30136 0.796307 3.42442 0.333344 4.75 0.333344H23.5291L37.6686 14.5556V42ZM11.8198 26.3889C11.8198 24.4259 12.501 22.7408 13.8634 21.3333C15.2258 19.9259 16.8828 19.2222 18.8343 19.2222C20.7859 19.2222 22.4612 19.9259 23.8605 21.3333C25.2597 22.7408 25.9593 24.4259 25.9593 26.3889C25.9593 28.3519 25.2597 30.0185 23.8605 31.3889C22.4612 32.7593 20.7859 33.4445 18.8343 33.4445C16.8828 33.4445 15.2258 32.7593 13.8634 31.3889C12.501 30.0185 11.8198 28.3519 11.8198 26.3889Z" fill="#02111D"/>
</svg>
