<svg width="44" height="44" viewBox="0 0 44 44" fill="none" xmlns="http://www.w3.org/2000/svg">
<circle opacity="0.2" cx="22" cy="22" r="22" fill="white"/>
<path d="M32.9375 16.375V17.0625C32.9375 18.9375 32.5938 20.7812 31.9062 22.5938C31.2188 24.4062 30.2396 26.0625 28.9688 27.5625C27.6979 29.0625 26.0521 30.2812 24.0312 31.2188C22.0104 32.1562 19.7917 32.625 17.375 32.625C14.3333 32.625 11.5417 31.8125 9 30.1875C9.41667 30.2292 9.85417 30.25 10.3125 30.25C12.8542 30.25 15.125 29.4792 17.125 27.9375C15.9167 27.8958 14.8438 27.5208 13.9062 26.8125C12.9688 26.1042 12.3333 25.2083 12 24.125C12.3333 24.2083 12.6667 24.25 13 24.25C13.5 24.25 13.9792 24.1667 14.4375 24C13.1875 23.75 12.1458 23.125 11.3125 22.125C10.4792 21.125 10.0625 19.9792 10.0625 18.6875V18.625C10.8542 19.0417 11.6875 19.2708 12.5625 19.3125C10.9375 18.1875 10.125 16.6667 10.125 14.75C10.125 13.75 10.375 12.8333 10.875 12C12.25 13.6667 13.9062 15 15.8438 16C17.7812 17 19.875 17.5625 22.125 17.6875C22.0417 17.2708 22 16.8542 22 16.4375C22 14.9375 22.5312 13.6562 23.5938 12.5938C24.6562 11.5312 25.9375 11 27.4375 11C29.0208 11 30.3542 11.5625 31.4375 12.6875C32.6875 12.4375 33.8542 12 34.9375 11.375C34.5208 12.6667 33.7083 13.6667 32.5 14.375C33.625 14.25 34.6875 13.9792 35.6875 13.5625C34.9375 14.6458 34.0208 15.5833 32.9375 16.375Z" fill="white"/>
</svg>
