<svg width="36" height="48" viewBox="0 0 36 48" fill="none" xmlns="http://www.w3.org/2000/svg">
<path d="M26.3824 0.5V4.8H3.79412V34.7H0V4.8C0 3.6 0.367647 2.58333 1.10294 1.75C1.83824 0.916667 2.73529 0.5 3.79412 0.5H26.3824ZM32.0294 9.1C33.0294 9.1 33.8971 9.51667 34.6324 10.35C35.3676 11.1833 35.7353 12.1667 35.7353 13.3V43.2C35.7353 44.4 35.3676 45.4167 34.6324 46.25C33.8971 47.0833 33.0294 47.5 32.0294 47.5H11.2941C10.2353 47.5 9.33824 47.0833 8.60294 46.25C7.86765 45.4167 7.5 44.4 7.5 43.2V13.3C7.5 12.1667 7.86765 11.1833 8.60294 10.35C9.33824 9.51667 10.2353 9.1 11.2941 9.1H32.0294ZM32.0294 43.2V13.3H11.2941V43.2H32.0294Z" fill="white"/>
</svg>
