<svg width="44" height="44" viewBox="0 0 44 44" fill="none" xmlns="http://www.w3.org/2000/svg">
<circle opacity="0.2" cx="22" cy="22" r="22" fill="white"/>
<path d="M31.7812 13.0625C34.3854 15.6458 35.6875 18.7604 35.6875 22.4062C35.6875 26.0521 34.3854 29.1667 31.7812 31.75C29.1771 34.3333 26.0417 35.625 22.375 35.625C20.125 35.625 18.0208 35.0833 16.0625 34L9 35.8125L10.875 29C9.70833 26.9583 9.125 24.75 9.125 22.375C9.125 18.75 10.4167 15.6458 13 13.0625C15.5833 10.4792 18.7083 9.1875 22.375 9.1875C26.0417 9.1875 29.1771 10.4792 31.7812 13.0625ZM22.375 33.375C25.4167 33.375 28.0208 32.3021 30.1875 30.1562C32.3542 28.0104 33.4375 25.4167 33.4375 22.375C33.4375 19.3333 32.3542 16.7396 30.1875 14.5938C28.0208 12.4479 25.4167 11.375 22.375 11.375C19.3333 11.375 16.7396 12.4479 14.5938 14.5938C12.4479 16.7396 11.375 19.3333 11.375 22.375C11.375 24.5 11.9375 26.4583 13.0625 28.25L13.3125 28.625L12.1875 32.6875L16.375 31.625L16.75 31.8125C18.5 32.8542 20.375 33.375 22.375 33.375ZM28.4375 25.125C28.8125 25.3333 29.0208 25.4792 29.0625 25.5625C29.2292 25.8125 29.1667 26.3333 28.875 27.125C28.75 27.4583 28.4375 27.7812 27.9375 28.0938C27.4375 28.4062 27 28.6042 26.625 28.6875C25.875 28.7708 25.1875 28.7292 24.5625 28.5625C23.8542 28.3125 23.2292 28.0833 22.6875 27.875C22.3542 27.7083 22.0312 27.5312 21.7188 27.3438C21.4062 27.1562 21.1042 26.9688 20.8125 26.7812C20.5208 26.5938 20.25 26.3958 20 26.1875C19.75 25.9792 19.5104 25.7708 19.2812 25.5625C19.0521 25.3542 18.8333 25.1354 18.625 24.9062C18.4167 24.6771 18.2396 24.4792 18.0938 24.3125C17.9479 24.1458 17.8021 23.9688 17.6562 23.7812C17.5104 23.5938 17.3958 23.4479 17.3125 23.3438C17.2292 23.2396 17.1562 23.1354 17.0938 23.0312L17 22.875C16.0833 21.6667 15.625 20.5208 15.625 19.4375C15.625 18.4375 16.0208 17.5208 16.8125 16.6875C17.0625 16.3958 17.3542 16.25 17.6875 16.25C17.9375 16.25 18.1458 16.2708 18.3125 16.3125C18.6458 16.3125 18.8958 16.5 19.0625 16.875C19.1458 17 19.2708 17.2708 19.4375 17.6875L19.875 18.7812L20.0625 19.3125C20.1875 19.5208 20.2083 19.7083 20.125 19.875C20 20.1667 19.8958 20.3542 19.8125 20.4375L19.625 20.625L19.4375 20.8438L19.3125 21C19.0625 21.25 19 21.4792 19.125 21.6875C19.6667 22.6042 20.2917 23.375 21 24C21.5417 24.4583 22.4375 25 23.6875 25.625C23.9792 25.75 24.2083 25.7292 24.375 25.5625C24.875 24.9375 25.2292 24.5 25.4375 24.25C25.6042 24 25.8542 23.9375 26.1875 24.0625C26.4375 24.1875 27.1875 24.5417 28.4375 25.125Z" fill="white"/>
</svg>
